<svg id="visual" viewBox="0 0 900 600" width="900" height="600" xmlns="http://www.w3.org/2000/svg" xmlns:xlink="http://www.w3.org/1999/xlink" version="1.1"><g stroke-width="1" stroke-linejoin="bevel"><path d="M500 285L595 294L492 220Z" fill="#4a9fd9" stroke="#4a9fd9"></path><path d="M595 294L618 228L492 220Z" fill="#6cc3ec" stroke="#6cc3ec"></path><path d="M368 316L509 370L500 285Z" fill="#57afe2" stroke="#57afe2"></path><path d="M500 285L509 370L595 294Z" fill="#52aadf" stroke="#52aadf"></path><path d="M608 376L671 320L595 294Z" fill="#6cc3ec" stroke="#6cc3ec"></path><path d="M595 294L671 320L618 228Z" fill="#72c8ef" stroke="#72c8ef"></path><path d="M509 370L608 376L595 294Z" fill="#6cc3ec" stroke="#6cc3ec"></path><path d="M618 228L525 106L492 220Z" fill="#6cc3ec" stroke="#6cc3ec"></path><path d="M671 320L685 166L618 228Z" fill="#52aadf" stroke="#52aadf"></path><path d="M618 228L626 88L525 106Z" fill="#57afe2" stroke="#57afe2"></path><path d="M376 98L384 222L492 220Z" fill="#72c8ef" stroke="#72c8ef"></path><path d="M492 220L384 222L500 285Z" fill="#469ad6" stroke="#469ad6"></path><path d="M685 166L626 88L618 228Z" fill="#469ad6" stroke="#469ad6"></path><path d="M384 222L368 316L500 285Z" fill="#5cb4e5" stroke="#5cb4e5"></path><path d="M368 316L434 415L509 370Z" fill="#52aadf" stroke="#52aadf"></path><path d="M571 512L675 468L608 376Z" fill="#52aadf" stroke="#52aadf"></path><path d="M608 376L675 417L671 320Z" fill="#57afe2" stroke="#57afe2"></path><path d="M810 77L715 62L685 166Z" fill="#52aadf" stroke="#52aadf"></path><path d="M675 468L675 417L608 376Z" fill="#5cb4e5" stroke="#5cb4e5"></path><path d="M438 0L376 98L525 106Z" fill="#52aadf" stroke="#52aadf"></path><path d="M525 106L376 98L492 220Z" fill="#52aadf" stroke="#52aadf"></path><path d="M384 222L311 312L368 316Z" fill="#4395d3" stroke="#4395d3"></path><path d="M797 268L685 166L671 320Z" fill="#61b9e7" stroke="#61b9e7"></path><path d="M685 166L715 62L626 88Z" fill="#72c8ef" stroke="#72c8ef"></path><path d="M626 88L616 0L525 106Z" fill="#4a9fd9" stroke="#4a9fd9"></path><path d="M815 423L797 268L671 320Z" fill="#57afe2" stroke="#57afe2"></path><path d="M281 209L311 312L384 222Z" fill="#6cc3ec" stroke="#6cc3ec"></path><path d="M368 316L336 384L434 415Z" fill="#67beea" stroke="#67beea"></path><path d="M715 62L616 0L626 88Z" fill="#6cc3ec" stroke="#6cc3ec"></path><path d="M571 512L608 376L509 370Z" fill="#4395d3" stroke="#4395d3"></path><path d="M675 417L815 423L671 320Z" fill="#72c8ef" stroke="#72c8ef"></path><path d="M616 0L485 0L525 106Z" fill="#72c8ef" stroke="#72c8ef"></path><path d="M311 312L336 384L368 316Z" fill="#4a9fd9" stroke="#4a9fd9"></path><path d="M379 489L462 492L434 415Z" fill="#72c8ef" stroke="#72c8ef"></path><path d="M434 415L462 492L509 370Z" fill="#469ad6" stroke="#469ad6"></path><path d="M462 492L571 512L509 370Z" fill="#72c8ef" stroke="#72c8ef"></path><path d="M485 0L438 0L525 106Z" fill="#4a9fd9" stroke="#4a9fd9"></path><path d="M301 75L281 209L376 98Z" fill="#4a9fd9" stroke="#4a9fd9"></path><path d="M376 98L281 209L384 222Z" fill="#5cb4e5" stroke="#5cb4e5"></path><path d="M797 268L825 221L685 166Z" fill="#4ea5dc" stroke="#4ea5dc"></path><path d="M810 77L712 0L715 62Z" fill="#469ad6" stroke="#469ad6"></path><path d="M715 62L712 0L616 0Z" fill="#67beea" stroke="#67beea"></path><path d="M336 384L379 489L434 415Z" fill="#4395d3" stroke="#4395d3"></path><path d="M461 600L636 600L571 512Z" fill="#5cb4e5" stroke="#5cb4e5"></path><path d="M310 0L301 75L376 98Z" fill="#6cc3ec" stroke="#6cc3ec"></path><path d="M825 221L810 77L685 166Z" fill="#4395d3" stroke="#4395d3"></path><path d="M808 525L815 423L675 468Z" fill="#57afe2" stroke="#57afe2"></path><path d="M675 468L815 423L675 417Z" fill="#4ea5dc" stroke="#4ea5dc"></path><path d="M797 268L900 297L825 221Z" fill="#6cc3ec" stroke="#6cc3ec"></path><path d="M207 132L226 190L281 209Z" fill="#469ad6" stroke="#469ad6"></path><path d="M281 209L176 260L311 312Z" fill="#52aadf" stroke="#52aadf"></path><path d="M207 371L290 473L336 384Z" fill="#5cb4e5" stroke="#5cb4e5"></path><path d="M336 384L290 473L379 489Z" fill="#4ea5dc" stroke="#4ea5dc"></path><path d="M438 0L310 0L376 98Z" fill="#4ea5dc" stroke="#4ea5dc"></path><path d="M301 75L207 132L281 209Z" fill="#57afe2" stroke="#57afe2"></path><path d="M207 371L336 384L311 312Z" fill="#67beea" stroke="#67beea"></path><path d="M815 423L900 297L797 268Z" fill="#4a9fd9" stroke="#4a9fd9"></path><path d="M825 221L900 181L810 77Z" fill="#4395d3" stroke="#4395d3"></path><path d="M900 297L900 181L825 221Z" fill="#469ad6" stroke="#469ad6"></path><path d="M163 0L207 132L301 75Z" fill="#72c8ef" stroke="#72c8ef"></path><path d="M176 260L207 371L311 312Z" fill="#67beea" stroke="#67beea"></path><path d="M461 600L571 512L462 492Z" fill="#4a9fd9" stroke="#4a9fd9"></path><path d="M571 512L636 600L675 468Z" fill="#4395d3" stroke="#4395d3"></path><path d="M461 600L462 492L379 489Z" fill="#72c8ef" stroke="#72c8ef"></path><path d="M372 600L461 600L379 489Z" fill="#4ea5dc" stroke="#4ea5dc"></path><path d="M176 260L281 209L226 190Z" fill="#5cb4e5" stroke="#5cb4e5"></path><path d="M900 70L827 0L810 77Z" fill="#72c8ef" stroke="#72c8ef"></path><path d="M810 77L827 0L712 0Z" fill="#4ea5dc" stroke="#4ea5dc"></path><path d="M127 195L176 260L226 190Z" fill="#57afe2" stroke="#57afe2"></path><path d="M718 600L808 525L675 468Z" fill="#72c8ef" stroke="#72c8ef"></path><path d="M815 423L900 416L900 297Z" fill="#72c8ef" stroke="#72c8ef"></path><path d="M900 510L900 416L815 423Z" fill="#61b9e7" stroke="#61b9e7"></path><path d="M900 181L900 70L810 77Z" fill="#61b9e7" stroke="#61b9e7"></path><path d="M636 600L718 600L675 468Z" fill="#72c8ef" stroke="#72c8ef"></path><path d="M269 600L372 600L290 473Z" fill="#57afe2" stroke="#57afe2"></path><path d="M290 473L372 600L379 489Z" fill="#4ea5dc" stroke="#4ea5dc"></path><path d="M900 70L900 0L827 0Z" fill="#4ea5dc" stroke="#4ea5dc"></path><path d="M99 97L127 195L207 132Z" fill="#61b9e7" stroke="#61b9e7"></path><path d="M207 132L127 195L226 190Z" fill="#6cc3ec" stroke="#6cc3ec"></path><path d="M176 260L116 372L207 371Z" fill="#6cc3ec" stroke="#6cc3ec"></path><path d="M718 600L803 600L808 525Z" fill="#4a9fd9" stroke="#4a9fd9"></path><path d="M808 525L900 510L815 423Z" fill="#4395d3" stroke="#4395d3"></path><path d="M900 600L900 510L808 525Z" fill="#52aadf" stroke="#52aadf"></path><path d="M168 530L269 600L290 473Z" fill="#61b9e7" stroke="#61b9e7"></path><path d="M168 530L290 473L207 371Z" fill="#52aadf" stroke="#52aadf"></path><path d="M65 333L116 372L176 260Z" fill="#4ea5dc" stroke="#4ea5dc"></path><path d="M310 0L163 0L301 75Z" fill="#72c8ef" stroke="#72c8ef"></path><path d="M163 0L99 97L207 132Z" fill="#4a9fd9" stroke="#4a9fd9"></path><path d="M127 195L65 333L176 260Z" fill="#61b9e7" stroke="#61b9e7"></path><path d="M116 372L168 530L207 371Z" fill="#5cb4e5" stroke="#5cb4e5"></path><path d="M168 530L210 600L269 600Z" fill="#5cb4e5" stroke="#5cb4e5"></path><path d="M116 372L64 479L168 530Z" fill="#6cc3ec" stroke="#6cc3ec"></path><path d="M0 292L65 333L127 195Z" fill="#4ea5dc" stroke="#4ea5dc"></path><path d="M803 600L900 600L808 525Z" fill="#72c8ef" stroke="#72c8ef"></path><path d="M163 0L107 0L99 97Z" fill="#469ad6" stroke="#469ad6"></path><path d="M0 197L0 292L127 195Z" fill="#5cb4e5" stroke="#5cb4e5"></path><path d="M0 392L64 479L116 372Z" fill="#5cb4e5" stroke="#5cb4e5"></path><path d="M168 530L77 600L210 600Z" fill="#4a9fd9" stroke="#4a9fd9"></path><path d="M0 197L127 195L99 97Z" fill="#52aadf" stroke="#52aadf"></path><path d="M65 333L0 392L116 372Z" fill="#4395d3" stroke="#4395d3"></path><path d="M0 79L0 197L99 97Z" fill="#67beea" stroke="#67beea"></path><path d="M0 292L0 392L65 333Z" fill="#5cb4e5" stroke="#5cb4e5"></path><path d="M107 0L0 79L99 97Z" fill="#5cb4e5" stroke="#5cb4e5"></path><path d="M0 524L77 600L64 479Z" fill="#469ad6" stroke="#469ad6"></path><path d="M64 479L77 600L168 530Z" fill="#57afe2" stroke="#57afe2"></path><path d="M107 0L0 0L0 79Z" fill="#72c8ef" stroke="#72c8ef"></path><path d="M0 392L0 524L64 479Z" fill="#6cc3ec" stroke="#6cc3ec"></path><path d="M0 524L0 600L77 600Z" fill="#57afe2" stroke="#57afe2"></path></g></svg>