<svg id="visual" viewBox="0 0 900 600" width="900" height="600" xmlns="http://www.w3.org/2000/svg" xmlns:xlink="http://www.w3.org/1999/xlink" version="1.1"><g stroke-width="1" stroke-linejoin="bevel"><path d="M504 329L522 384L627 327Z" fill="#071926" stroke="#071926"></path><path d="M522 384L636 421L627 327Z" fill="#1b4d67" stroke="#1b4d67"></path><path d="M701 419L670 287L627 327Z" fill="#236a8a" stroke="#236a8a"></path><path d="M627 327L519 220L504 329Z" fill="#123145" stroke="#123145"></path><path d="M670 287L519 220L627 327Z" fill="#1b4d67" stroke="#1b4d67"></path><path d="M522 384L579 467L636 421Z" fill="#153a50" stroke="#153a50"></path><path d="M737 530L701 419L636 421Z" fill="#1e5672" stroke="#1e5672"></path><path d="M636 421L701 419L627 327Z" fill="#071926" stroke="#071926"></path><path d="M361 280L418 422L504 329Z" fill="#071926" stroke="#071926"></path><path d="M504 329L418 422L522 384Z" fill="#0b2130" stroke="#0b2130"></path><path d="M522 384L528 530L579 467Z" fill="#1e5672" stroke="#1e5672"></path><path d="M670 287L639 167L519 220Z" fill="#123145" stroke="#123145"></path><path d="M418 422L528 530L522 384Z" fill="#00101c" stroke="#00101c"></path><path d="M579 467L737 530L636 421Z" fill="#236a8a" stroke="#236a8a"></path><path d="M397 190L361 280L519 220Z" fill="#0e293a" stroke="#0e293a"></path><path d="M519 220L361 280L504 329Z" fill="#0e293a" stroke="#0e293a"></path><path d="M639 167L533 123L519 220Z" fill="#123145" stroke="#123145"></path><path d="M783 222L695 160L670 287Z" fill="#00101c" stroke="#00101c"></path><path d="M670 287L695 160L639 167Z" fill="#1b4d67" stroke="#1b4d67"></path><path d="M639 167L609 111L533 123Z" fill="#1e5672" stroke="#1e5672"></path><path d="M533 123L397 190L519 220Z" fill="#153a50" stroke="#153a50"></path><path d="M689 81L609 111L639 167Z" fill="#18435b" stroke="#18435b"></path><path d="M795 488L802 363L701 419Z" fill="#00101c" stroke="#00101c"></path><path d="M701 419L802 363L670 287Z" fill="#0b2130" stroke="#0b2130"></path><path d="M361 280L330 388L418 422Z" fill="#0e293a" stroke="#0e293a"></path><path d="M418 422L384 533L528 530Z" fill="#1e5672" stroke="#1e5672"></path><path d="M802 363L783 222L670 287Z" fill="#071926" stroke="#071926"></path><path d="M397 190L329 266L361 280Z" fill="#0b2130" stroke="#0b2130"></path><path d="M361 280L329 266L330 388Z" fill="#153a50" stroke="#153a50"></path><path d="M587 600L737 530L579 467Z" fill="#18435b" stroke="#18435b"></path><path d="M500 600L587 600L528 530Z" fill="#18435b" stroke="#18435b"></path><path d="M528 530L587 600L579 467Z" fill="#0b2130" stroke="#0b2130"></path><path d="M281 467L384 533L418 422Z" fill="#0b2130" stroke="#0b2130"></path><path d="M438 600L500 600L528 530Z" fill="#1b4d67" stroke="#1b4d67"></path><path d="M802 363L830 272L783 222Z" fill="#1e5672" stroke="#1e5672"></path><path d="M737 530L795 488L701 419Z" fill="#236a8a" stroke="#236a8a"></path><path d="M802 363L900 277L830 272Z" fill="#123145" stroke="#123145"></path><path d="M695 160L689 81L639 167Z" fill="#1b4d67" stroke="#1b4d67"></path><path d="M470 0L427 75L533 123Z" fill="#123145" stroke="#123145"></path><path d="M820 115L689 81L695 160Z" fill="#0e293a" stroke="#0e293a"></path><path d="M820 115L695 160L783 222Z" fill="#071926" stroke="#071926"></path><path d="M384 533L438 600L528 530Z" fill="#0b2130" stroke="#0b2130"></path><path d="M533 123L427 75L397 190Z" fill="#00101c" stroke="#00101c"></path><path d="M397 190L283 179L329 266Z" fill="#1e5672" stroke="#1e5672"></path><path d="M600 0L533 123L609 111Z" fill="#071926" stroke="#071926"></path><path d="M587 600L729 600L737 530Z" fill="#0e293a" stroke="#0e293a"></path><path d="M737 530L765 600L795 488Z" fill="#153a50" stroke="#153a50"></path><path d="M185 374L281 467L330 388Z" fill="#0b2130" stroke="#0b2130"></path><path d="M330 388L281 467L418 422Z" fill="#00101c" stroke="#00101c"></path><path d="M384 533L335 600L438 600Z" fill="#236a8a" stroke="#236a8a"></path><path d="M427 75L283 179L397 190Z" fill="#1e5672" stroke="#1e5672"></path><path d="M329 266L198 286L330 388Z" fill="#0e293a" stroke="#0e293a"></path><path d="M729 600L765 600L737 530Z" fill="#1b4d67" stroke="#1b4d67"></path><path d="M900 213L820 115L783 222Z" fill="#00101c" stroke="#00101c"></path><path d="M900 434L900 277L802 363Z" fill="#071926" stroke="#071926"></path><path d="M830 272L900 213L783 222Z" fill="#236a8a" stroke="#236a8a"></path><path d="M900 434L802 363L795 488Z" fill="#1e5672" stroke="#1e5672"></path><path d="M730 0L600 0L689 81Z" fill="#00101c" stroke="#00101c"></path><path d="M689 81L600 0L609 111Z" fill="#0b2130" stroke="#0b2130"></path><path d="M900 464L900 434L795 488Z" fill="#1b4d67" stroke="#1b4d67"></path><path d="M281 467L335 600L384 533Z" fill="#18435b" stroke="#18435b"></path><path d="M600 0L470 0L533 123Z" fill="#1b4d67" stroke="#1b4d67"></path><path d="M427 75L266 67L283 179Z" fill="#0e293a" stroke="#0e293a"></path><path d="M900 600L900 464L795 488Z" fill="#0b2130" stroke="#0b2130"></path><path d="M900 277L900 213L830 272Z" fill="#236a8a" stroke="#236a8a"></path><path d="M191 238L198 286L329 266Z" fill="#0e293a" stroke="#0e293a"></path><path d="M281 467L182 516L335 600Z" fill="#0e293a" stroke="#0e293a"></path><path d="M820 115L730 0L689 81Z" fill="#0b2130" stroke="#0b2130"></path><path d="M828 0L730 0L820 115Z" fill="#071926" stroke="#071926"></path><path d="M198 286L185 374L330 388Z" fill="#1b4d67" stroke="#1b4d67"></path><path d="M283 179L191 238L329 266Z" fill="#0e293a" stroke="#0e293a"></path><path d="M198 286L78 361L185 374Z" fill="#0e293a" stroke="#0e293a"></path><path d="M160 129L191 238L283 179Z" fill="#21607e" stroke="#21607e"></path><path d="M470 0L372 0L427 75Z" fill="#153a50" stroke="#153a50"></path><path d="M900 213L900 130L820 115Z" fill="#236a8a" stroke="#236a8a"></path><path d="M372 0L266 67L427 75Z" fill="#0b2130" stroke="#0b2130"></path><path d="M185 374L182 516L281 467Z" fill="#00101c" stroke="#00101c"></path><path d="M765 600L900 600L795 488Z" fill="#21607e" stroke="#21607e"></path><path d="M900 0L828 0L820 115Z" fill="#00101c" stroke="#00101c"></path><path d="M372 0L265 0L266 67Z" fill="#0e293a" stroke="#0e293a"></path><path d="M266 67L160 129L283 179Z" fill="#071926" stroke="#071926"></path><path d="M217 0L160 129L266 67Z" fill="#153a50" stroke="#153a50"></path><path d="M191 238L64 265L198 286Z" fill="#00101c" stroke="#00101c"></path><path d="M185 374L137 519L182 516Z" fill="#153a50" stroke="#153a50"></path><path d="M78 361L137 519L185 374Z" fill="#236a8a" stroke="#236a8a"></path><path d="M182 516L163 600L335 600Z" fill="#00101c" stroke="#00101c"></path><path d="M900 130L900 0L820 115Z" fill="#0b2130" stroke="#0b2130"></path><path d="M160 129L109 199L191 238Z" fill="#071926" stroke="#071926"></path><path d="M137 519L163 600L182 516Z" fill="#236a8a" stroke="#236a8a"></path><path d="M265 0L217 0L266 67Z" fill="#21607e" stroke="#21607e"></path><path d="M160 129L113 130L109 199Z" fill="#236a8a" stroke="#236a8a"></path><path d="M64 265L78 361L198 286Z" fill="#00101c" stroke="#00101c"></path><path d="M137 519L89 600L163 600Z" fill="#1b4d67" stroke="#1b4d67"></path><path d="M138 0L113 130L160 129Z" fill="#071926" stroke="#071926"></path><path d="M109 199L64 265L191 238Z" fill="#18435b" stroke="#18435b"></path><path d="M0 171L64 265L109 199Z" fill="#236a8a" stroke="#236a8a"></path><path d="M0 482L137 519L78 361Z" fill="#0e293a" stroke="#0e293a"></path><path d="M0 482L89 600L137 519Z" fill="#071926" stroke="#071926"></path><path d="M0 171L0 297L64 265Z" fill="#00101c" stroke="#00101c"></path><path d="M217 0L138 0L160 129Z" fill="#1e5672" stroke="#1e5672"></path><path d="M0 171L109 199L113 130Z" fill="#18435b" stroke="#18435b"></path><path d="M64 265L0 297L78 361Z" fill="#1e5672" stroke="#1e5672"></path><path d="M0 297L0 394L78 361Z" fill="#153a50" stroke="#153a50"></path><path d="M0 394L0 482L78 361Z" fill="#0b2130" stroke="#0b2130"></path><path d="M0 91L0 171L113 130Z" fill="#153a50" stroke="#153a50"></path><path d="M138 0L0 91L113 130Z" fill="#00101c" stroke="#00101c"></path><path d="M0 482L0 600L89 600Z" fill="#153a50" stroke="#153a50"></path><path d="M138 0L0 0L0 91Z" fill="#21607e" stroke="#21607e"></path></g></svg>